<svg width="32" height="32" viewBox="0 0 32 32" fill="none" xmlns="http://www.w3.org/2000/svg">
<g id="Icon - Like">
<path id="Vector" d="M26.4351 10.3766L26.4352 10.3768C26.5325 10.8857 26.4498 11.4133 26.2009 11.8674C25.9519 12.3215 25.552 12.6737 25.0701 12.8606L25.0696 12.8608L24.4291 13.1085L26.4351 10.3766ZM26.4351 10.3766L25.8875 7.52048L25.8875 7.52046C25.7835 6.97851 25.5283 6.47729 25.1512 6.07635C24.774 5.67535 24.2905 5.39142 23.7576 5.25907L23.7576 5.25906L13.4426 2.69868C12.1878 2.38718 10.8625 2.5901 9.75552 3.26238C8.64877 3.93453 7.85058 5.02078 7.53238 6.28347L7.53236 6.28356L5.61892 13.8825L5.6189 13.8826C5.51153 14.3094 5.50189 14.7552 5.5907 15.1863C5.6795 15.6173 5.86449 16.0226 6.13196 16.371C6.39945 16.7195 6.74246 17.002 7.13511 17.1965C7.52779 17.391 7.95949 17.4922 8.39721 17.4922M26.4351 10.3766L8.39721 17.4922M14.3187 26.7395C14.3871 26.4679 14.4588 26.1973 14.5337 25.9275L14.3187 26.7395ZM14.3187 26.7395C14.0618 27.728 13.936 27.9457 13.9198 27.9457C12.7461 27.9457 11.882 26.5984 11.882 24.2503C11.882 23.0399 12.3228 21.0532 13.2126 18.3422M14.3187 26.7395L19.8274 16.9072M19.8274 16.9072L19.8274 16.9072L15.9505 23.0494L15.9498 23.0505C15.8548 23.2001 15.7809 23.3665 15.7314 23.5407L15.7309 23.5424C15.3904 24.7259 15.1529 25.5663 15.0155 26.0612L15.0155 26.0614C14.9416 26.3272 14.871 26.5939 14.8036 26.8615L14.8027 26.8652C14.6719 27.3682 14.5716 27.687 14.4982 27.8862C14.4618 27.9848 14.4291 28.0622 14.3993 28.1214C14.3852 28.1494 14.3659 28.1851 14.3413 28.2203C14.3301 28.2363 14.3075 28.2675 14.2739 28.3003C14.2574 28.3165 14.2267 28.3445 14.1828 28.3714C14.146 28.394 14.0521 28.4457 13.9198 28.4457C13.1098 28.4457 12.4548 27.9707 12.0274 27.2279C11.6063 26.4962 11.382 25.4768 11.382 24.2503C11.382 22.9532 11.8468 20.9001 12.7375 18.1865M19.8274 16.9072C20.921 15.1742 22.5341 13.8432 24.4286 13.1087L19.8274 16.9072ZM12.7375 18.1865C12.7375 18.1864 12.7375 18.1864 12.7375 18.1863L13.2126 18.3422M12.7375 18.1865C12.7374 18.1866 12.7374 18.1866 12.7374 18.1866L13.2126 18.3422M12.7375 18.1865C12.7636 18.1067 12.7706 18.0216 12.758 17.9382C12.7454 17.8549 12.7134 17.7762 12.6653 17.7085C12.6171 17.6409 12.5542 17.5864 12.4822 17.549C12.4102 17.5117 12.3308 17.4923 12.2505 17.4922M13.2126 18.3422C13.2631 18.188 13.2767 18.0239 13.2524 17.8633C13.228 17.7027 13.1664 17.5503 13.0725 17.4185C12.9787 17.2867 12.8553 17.1793 12.7125 17.1052C12.5697 17.0311 12.4116 16.9924 12.2511 16.9922M12.2505 17.4922H12.2511V16.9922M12.2505 17.4922L12.2511 16.9922M12.2505 17.4922H8.39726L8.39721 16.9922M12.2511 16.9922H8.39721M8.39721 16.9922V17.4922M8.39721 16.9922C8.03668 16.9922 7.68091 16.9089 7.35705 16.7484C7.0332 16.588 6.74983 16.3548 6.52858 16.0666C6.30732 15.7784 6.15403 15.4428 6.08041 15.0854C6.00679 14.728 6.01479 14.3584 6.10379 14.0046L8.39721 17.4922M16.002 26.3492L16.0019 26.3499C15.9477 26.5454 15.8966 26.7412 15.7954 27.1375C15.5459 28.097 15.3228 28.6848 15.0415 29.038C14.7996 29.3417 14.4911 29.5009 13.9185 29.5009C12.838 29.5009 11.9685 28.995 11.3506 28.0961C10.7227 27.1826 10.3522 25.8527 10.3522 24.2503C10.3522 23.0804 10.6716 21.4132 11.3386 19.1897L11.5317 18.546H10.8597H8.39586H8.39574C7.80326 18.5461 7.21836 18.4092 6.68562 18.1453C6.15287 17.8815 5.68614 17.4975 5.32142 17.0224C4.95668 16.5472 4.7037 15.9935 4.58221 15.4034C4.46072 14.8133 4.47404 14.2028 4.62112 13.6188L4.13626 13.4967L4.62112 13.6188L6.53456 6.01978C6.92109 4.48482 7.89006 3.16828 9.22853 2.35509C10.5668 1.54205 12.167 1.29723 13.6818 1.67297L23.9967 4.23333L23.9968 4.23334C24.7187 4.41248 25.3756 4.79753 25.8894 5.34381C26.4033 5.89012 26.7523 6.57479 26.8945 7.31699C26.8945 7.31702 26.8945 7.31705 26.8945 7.31709L27.4408 10.1731L27.4408 10.1733C27.5856 10.9287 27.4627 11.7113 27.0944 12.3833C26.7261 13.0552 26.1366 13.5728 25.4306 13.8465L24.7912 14.0943L24.7911 14.0943C23.0999 14.7498 21.6621 15.9368 20.6883 17.4798L20.6882 17.4799L16.8147 23.6209C16.7719 23.688 16.7389 23.7608 16.7165 23.837L16.7157 23.8398C16.3776 25.0176 16.1392 25.8571 16.002 26.3492Z" fill="#5E5E75" stroke="#5E5E75"/>
</g>
</svg>
