<svg width="32" height="32" viewBox="0 0 32 32" fill="none" xmlns="http://www.w3.org/2000/svg">
<g id="Icon - Like">
<path id="Vector" d="M5.56488 21.6251L5.56484 21.6249C5.46748 21.116 5.55019 20.5884 5.79913 20.1343C6.04813 19.6802 6.44804 19.328 6.92987 19.1411L6.93038 19.1409L7.57093 18.8932L5.56488 21.6251ZM5.56488 21.6251L6.11255 24.4812L6.11255 24.4812C6.21649 25.0232 6.4717 25.5244 6.84884 25.9254C7.22604 26.3264 7.70948 26.6103 8.24236 26.7426L8.24243 26.7427L18.5574 29.303C19.8122 29.6145 21.1375 29.4116 22.2445 28.7393C23.3512 28.0672 24.1494 26.9809 24.4676 25.7182L24.4676 25.7181L26.3811 18.1192L26.3811 18.1191C26.4885 17.6923 26.4981 17.2465 26.4093 16.8154C26.3205 16.3844 26.1355 15.9791 25.868 15.6307C25.6005 15.2822 25.2575 14.9997 24.8649 14.8052C24.4722 14.6107 24.0405 14.5095 23.6028 14.5095M5.56488 21.6251L23.6028 14.5095M17.6813 5.26226C17.6129 5.53379 17.5412 5.80446 17.4663 6.07419L17.6813 5.26226ZM17.6813 5.26226C17.9382 4.27371 18.064 4.056 18.0802 4.056C19.2539 4.056 20.118 5.40328 20.118 7.75144C20.118 8.9618 19.6772 10.9485 18.7874 13.6595M17.6813 5.26226L12.1726 15.0945M12.1726 15.0945L12.1726 15.0945L16.0495 8.95233L16.0502 8.95121C16.1452 8.80163 16.2191 8.63526 16.2686 8.46103L16.2691 8.45934C16.6096 7.27582 16.8471 6.43541 16.9845 5.94048L16.9845 5.94026C17.0584 5.67448 17.129 5.40778 17.1964 5.14022L17.1973 5.13648C17.3281 4.63355 17.4284 4.31473 17.5018 4.11555C17.5382 4.01691 17.5709 3.93947 17.6007 3.88028C17.6148 3.8523 17.6341 3.81666 17.6587 3.78143C17.6699 3.76542 17.6925 3.73425 17.7261 3.7014C17.7426 3.68522 17.7733 3.65716 17.8172 3.63029C17.854 3.6077 17.9479 3.556 18.0802 3.556C18.8902 3.556 19.5452 4.03104 19.9726 4.77378C20.3937 5.50551 20.618 6.52495 20.618 7.75144C20.618 9.04852 20.1532 11.1016 19.2625 13.8152M12.1726 15.0945C11.079 16.8275 9.46588 18.1585 7.57135 18.8931L12.1726 15.0945ZM19.2625 13.8152C19.2625 13.8153 19.2625 13.8153 19.2625 13.8154L18.7874 13.6595M19.2625 13.8152C19.2626 13.8152 19.2626 13.8151 19.2626 13.8151L18.7874 13.6595M19.2625 13.8152C19.2364 13.895 19.2294 13.9801 19.242 14.0635C19.2546 14.1468 19.2866 14.2255 19.3347 14.2932C19.3829 14.3608 19.4458 14.4153 19.5178 14.4527C19.5898 14.49 19.6692 14.5094 19.7495 14.5095M18.7874 13.6595C18.7369 13.8137 18.7233 13.9778 18.7476 14.1384C18.772 14.299 18.8336 14.4515 18.9275 14.5832C19.0213 14.715 19.1447 14.8224 19.2875 14.8965C19.4303 14.9706 19.5884 15.0093 19.7489 15.0095M19.7495 14.5095H19.7489V15.0095M19.7495 14.5095L19.7489 15.0095M19.7495 14.5095H23.6027L23.6028 15.0095M19.7489 15.0095H23.6028M23.6028 15.0095V14.5095M23.6028 15.0095C23.9633 15.0095 24.3191 15.0928 24.6429 15.2533C24.9668 15.4137 25.2502 15.6469 25.4714 15.9351C25.6927 16.2234 25.846 16.559 25.9196 16.9163C25.9932 17.2737 25.9852 17.6433 25.8962 17.9971L23.6028 14.5095M15.998 5.6525L15.9981 5.65182C16.0523 5.45636 16.1034 5.26054 16.2046 4.86417C16.4541 3.90472 16.6772 3.31689 16.9585 2.96372C17.2004 2.65996 17.5089 2.50085 18.0815 2.50085C19.162 2.50085 20.0315 3.0067 20.6494 3.90556C21.2773 4.81907 21.6478 6.14899 21.6478 7.75144C21.6478 8.92129 21.3284 10.5885 20.6614 12.8121L20.4683 13.4557H21.1403H23.6041H23.6043C24.1967 13.4556 24.7816 13.5925 25.3144 13.8564C25.8471 14.1202 26.3139 14.5042 26.6786 14.9793C27.0433 15.4545 27.2963 16.0082 27.4178 16.5983C27.5393 17.1884 27.526 17.7989 27.3789 18.3829L27.8637 18.505L27.3789 18.3829L25.4654 25.9819C25.0789 27.5169 24.1099 28.8334 22.7715 29.6466C21.4332 30.4597 19.833 30.7045 18.3182 30.3287L8.00329 27.7684L8.00325 27.7684C7.28133 27.5892 6.62439 27.2042 6.11058 26.6579C5.59675 26.1116 5.24767 25.4269 5.10553 24.6847C5.10552 24.6847 5.10552 24.6847 5.10551 24.6846L4.55922 21.8286L4.55918 21.8284C4.41439 21.073 4.5373 20.2904 4.90564 19.6184C5.27391 18.9465 5.86344 18.4289 6.56938 18.1552L7.20885 17.9074L7.2089 17.9074C8.90012 17.2519 10.3379 16.0649 11.3117 14.522L11.3118 14.5218L15.1853 8.3808C15.2281 8.31368 15.2611 8.2409 15.2835 8.16467L15.2843 8.16189C15.6224 6.98414 15.8608 6.14465 15.998 5.6525Z" fill="#5E5E75" stroke="#5E5E75"/>
</g>
</svg>
